<svg xmlns="http://www.w3.org/2000/svg" xmlns:xlink="http://www.w3.org/1999/xlink" version="1.1" x="0px" y="0px" viewBox="0 0 91 91" style="enable-background:new 0 0 91 91;" xml:space="preserve"><g><path d="M52.7,71c-3.1,3.9,2.5,8.3,5.4,4.2c6.6-9.1,12.6-18.8,17.1-29.1c3.8-8.7,7-19.8,2.7-28.9c-4.7-10-15.6-3-20.5,2.7   c-4.6,5.4-7.7,11.8-10.3,18.4c-2.4-8-5.2-15.8-9.6-23C33.2,8,24.1,0.4,15.8,7.6c-8.4,7.3-4.6,19.3-1.2,28.1   c3.7,9.6,8.6,18.8,14.8,27c7,9.1,15.2,17.1,24.3,24c1.4,1.1,2.9-1.3,1.4-2.4C37.8,70.9,24.6,51.2,17.8,30.4   c-1.7-5.2-3.7-11.9-0.3-16.9c4.1-6.1,10.2-2.6,13.7,2.1C38.1,25,41.1,37,44.3,48c0.8,2.8,4.5,2.5,5.4,0c2.7-7.4,5.5-14.7,9.9-21.3   c2-3,4.6-6.4,7.9-8.2c5.3-2.9,6.8,2.3,7.1,6.7c0.5,8.6-3.5,16.8-7.4,24.1C62.9,57,58.1,64.3,52.7,71z"/></g></svg>