<svg xmlns="http://www.w3.org/2000/svg" viewBox="0 0 100 100" version="1.1" x="0px" y="0px"><g stroke="none" stroke-width="1" fill="none" fill-rule="evenodd"><g fill="#000000" fill-rule="nonzero"><path d="M33.1433015,42.8832816 C32.9703056,42.7645596 32.8087137,42.6674573 32.6573481,42.5903818 C32.4643446,42.491693 32.2520726,42.3882381 32.0188597,42.2793154 C31.7748046,42.1649068 31.5137945,42.0431546 31.2306108,41.9116233 C30.9356852,41.7732345 30.627717,41.6215333 30.3050506,41.4557302 C29.9677763,41.281933 29.6317996,41.0935131 29.2971146,40.8905393 C28.9674644,40.6906189 28.653375,40.4879755 28.3521176,40.2806257 C28.0523881,40.0733355 27.7582688,39.8561779 27.4654039,39.625725 C27.1979749,39.4136455 26.9414567,39.208357 26.6958344,39.0098444 C26.4602459,38.8194411 26.2298086,38.6363636 26.0023302,38.4588904 C25.7652997,38.2732377 25.5116662,38.0712881 25.2437175,37.8549015 C24.9854461,37.6472253 24.7318627,37.4468654 24.4824028,37.2533768 C24.2217024,37.050961 23.9551393,36.841713 23.6846033,36.627132 C23.4158217,36.4146677 23.140182,36.1971687 22.8553964,35.9728292 C22.5690806,35.7463636 22.2800564,35.5157882 21.9847814,35.2782452 C21.6895549,35.0392375 21.3980423,34.7978385 21.1084404,34.5525164 C20.821544,34.3086917 20.5388153,34.0629277 20.2581929,33.813385 C19.8662082,33.4635548 19.8662082,33.4635548 19.5270191,33.1610979 C19.3107155,32.9681687 19.1035903,32.7844108 18.9028403,32.6073441 C18.7072742,32.4339622 18.5283274,32.2771452 18.3661349,32.1369965 C18.1837827,31.979428 17.999244,31.813109 17.8066219,31.6325404 C17.4287734,31.2744997 17.1694579,30.8302083 17.0532961,30.3271363 C16.8525048,29.4575519 17.2253745,28.5989941 18.0653117,28.212649 C18.2991235,28.1051027 18.5388694,28.0117269 18.7842553,27.9326201 C18.9533766,27.8780993 19.1479525,27.8102753 19.3671188,27.7292866 C19.610687,27.6392808 19.8402782,27.5561097 20.0506249,27.4816589 C20.2762465,27.400803 20.5195181,27.3186689 20.7821798,27.2346279 C21.0376146,27.1532012 21.3087678,27.0696654 21.5957213,26.9839802 C21.8798099,26.8991505 22.1480684,26.8207088 22.399184,26.7490369 C22.6899688,26.6657335 22.9903,26.5952946 23.3000807,26.5375645 C23.5775889,26.4858486 23.8439726,26.439734 24.098472,26.3993657 C24.3363245,26.3614949 24.5746394,26.3227203 24.808111,26.2839338 C25.1712323,26.2221485 25.1712323,26.2221485 25.5337169,26.1601906 C25.7503257,26.122454 25.9837618,26.0740194 26.2381061,26.0137384 C26.4968667,25.9532551 26.7614404,25.8857767 27.0370918,25.8098344 C27.3066153,25.7366551 27.6019231,25.6494514 27.9260201,25.5471645 C28.2598234,25.44271 28.5236922,25.358867 28.7222499,25.2941599 C28.9075307,25.2346178 29.0981205,25.1701828 29.2886294,25.1027546 C29.4939222,25.0291839 29.7015287,24.9537925 29.9133443,24.8758841 C30.2388067,24.7567102 30.2388067,24.7567102 30.5721644,24.6347649 C30.7884538,24.5547858 31.0193531,24.4661079 31.2588477,24.3711031 C31.5105585,24.2699758 31.7484999,24.1734591 31.9679881,24.0834846 C32.1881278,23.9923489 32.4510814,23.8808374 32.7563219,23.749146 C33.0728371,23.6125902 33.3662367,23.4878755 33.6326683,23.3766258 C33.908172,23.2606302 34.1859914,23.1475111 34.4605384,23.0394791 C34.7159452,22.9377551 34.9770887,22.8292926 35.2386288,22.7163922 C35.531367,22.5886355 35.8517848,22.4550197 36.1988773,22.3158814 C36.5346148,22.1809265 36.8192633,22.0669746 37.057623,21.972126 C37.2911778,21.8801006 37.564314,21.7730546 37.8784779,21.6504227 C38.1976378,21.5262042 38.497373,21.4120158 38.7752624,21.3087717 C39.0643783,21.2007475 39.3602893,21.0957703 39.6669679,20.992493 C39.9471603,20.8990197 40.1946502,20.8143883 40.4040452,20.7405355 C40.6394889,20.6565182 40.9112911,20.563935 41.2201273,20.4624862 C41.5164022,20.3651636 41.77517,20.2797463 41.9929199,20.2074065 C42.2214179,20.1308675 42.4882847,20.0430783 42.795041,19.9435347 C43.093795,19.8468803 43.3664004,19.7575915 43.6127617,19.6757043 C43.8591489,19.5938086 44.1156728,19.5073304 44.3865197,19.4148451 C44.6407046,19.3289021 44.8776797,19.244291 45.1001844,19.1600351 C45.3409612,19.069437 45.6214505,18.9657948 45.93844,18.8502707 C46.2391567,18.7398024 46.4954895,18.6412321 46.7044039,18.5559274 C46.9286945,18.4639747 47.1884275,18.3563805 47.4819609,18.2338264 C47.77755,18.1100333 48.0850398,17.9807463 48.4011623,17.8473489 C48.7165084,17.7133753 49.013013,17.5854292 49.2922108,17.462844 C49.5745215,17.3392896 49.8563763,17.2152818 50.1377753,17.0908206 C50.4189524,16.9664576 50.7138829,16.8352205 51.0225537,16.6971144 C51.3454515,16.5526429 51.6644293,16.4151475 51.9745588,16.2866921 C52.2807337,16.1585514 52.6014161,16.0263712 52.936632,15.8901371 C53.2684635,15.7552784 53.5902663,15.6249847 53.8986093,15.5006448 C54.222624,15.3690261 54.5404945,15.2453095 54.8522524,15.1295017 C55.1478013,15.019715 55.4131281,14.9204765 55.6510387,14.8307332 C55.9032143,14.7362124 56.187221,14.6355249 56.5036322,14.5283744 C56.8206059,14.4210334 57.1008111,14.330618 57.3453125,14.2569132 C57.6863201,14.1540042 57.6863201,14.1540042 58.0319288,14.0492582 C58.2682576,13.9775571 58.4978057,13.9090561 58.722169,13.8432906 C59.0451577,13.7490377 59.0451577,13.7490377 59.3374664,13.6638655 C59.5373912,13.6046848 59.7993655,13.5289109 60.1205619,13.4373329 C60.4363533,13.3463904 60.7383599,13.2577839 61.0265557,13.1715245 C61.3188933,13.0840254 61.5874561,13.0033912 61.8288959,12.9306352 C62.056697,12.861395 62.2889518,12.7856075 62.5212138,12.7047992 C62.7294215,12.631606 62.8999655,12.5626902 63.0249575,12.5029858 C63.1784696,12.4288696 63.33713,12.3457686 63.5008059,12.2536261 C63.7615562,12.106835 64.1030317,11.9537298 64.5420614,11.7819793 C64.7749634,11.6908669 65.01704,11.6634465 65.2490897,11.6913023 C65.5536464,11.4036641 65.9156891,11.1959315 66.3236189,11.0816996 C66.9048622,10.9208567 67.5034271,10.9970452 68.0288887,11.3143281 C68.2605056,11.4561979 68.4838253,11.6183457 68.7019634,11.8027922 C68.9415294,12.0065193 69.1602373,12.2390425 69.3587018,12.4994039 C69.5066113,12.6937556 69.6430386,12.881559 69.770225,13.0662423 C69.8854369,13.2344748 70.0140278,13.4251693 70.1561605,13.6385414 C70.2868823,13.8347834 70.4154663,14.0218105 70.5445764,14.2034228 C70.6616871,14.369265 70.7932616,14.543763 70.9397633,14.727244 C71.0945917,14.9213718 71.2614024,15.1250287 71.4424274,15.3408432 C71.6481809,15.5873392 71.8419486,15.8352171 72.0276539,16.0900127 C72.2053593,16.3361889 72.3580143,16.5594811 72.4844317,16.7586024 C72.6070412,16.9507125 72.7445358,17.1772714 72.8978385,17.439457 C73.0466766,17.6940071 73.1909127,17.9459177 73.3326105,18.1988935 C73.4768801,18.4582003 73.6024547,18.6946512 73.7083928,18.9067052 C73.8139477,19.116999 73.9190696,19.3362627 74.0259775,19.5692735 C74.128618,19.7950721 74.2314139,20.0302937 74.3344058,20.2749779 C74.4374676,20.5198279 74.5402531,20.7741161 74.6411127,21.0335653 C74.7359065,21.2751344 74.8324057,21.5135052 74.9331347,21.7547697 C75.0289881,21.9872515 75.13205,22.2269134 75.2423227,22.4737075 C75.3541987,22.7240902 75.4729052,22.9824532 75.5959221,23.2434538 C75.7343308,23.5340574 75.8629789,23.817313 75.981859,24.0932998 C76.1062137,24.3819962 76.2272562,24.6919146 76.3461537,25.0257097 C76.4645097,25.3598053 76.5746168,25.7100189 76.6766434,26.0764115 C76.7810056,26.4511916 76.8711499,26.8390758 76.9470895,27.2393501 C77.0148175,27.595437 77.0857346,27.9598036 77.1606345,28.336465 C77.232927,28.705367 77.2896733,28.9848918 77.3301821,29.1720734 C77.3944496,29.469552 77.3944496,29.469552 77.455177,29.752748 C77.4969673,29.9427758 77.5593665,30.2249399 77.6424725,30.5996782 C77.7232471,30.9647917 77.8066269,31.3229946 77.8928076,31.6751118 C77.9704169,31.9930077 78.0594585,32.2957564 78.1597553,32.5834546 C78.268266,32.8947141 78.3854566,33.2071907 78.511347,33.5208867 C78.6386843,33.838188 78.7711549,34.151003 78.910154,34.4624838 C79.0507578,34.7795445 79.1977203,35.1026789 79.350307,35.4302988 C79.5133612,35.7793105 79.67352,36.1333604 79.8300607,36.4907909 C79.9912324,36.8575622 80.1122845,37.1446254 80.1930807,37.3523055 C80.2713584,37.5510247 80.3784325,37.8313282 80.5151957,38.195395 C80.6482187,38.5495055 80.7515604,38.822296 80.8261503,39.0162184 C80.9023116,39.2157159 81.0112044,39.5069507 81.1541544,39.8934187 C81.2946304,40.2747579 81.4396539,40.6711404 81.5888677,41.0815836 C81.7400554,41.496527 81.8536964,41.8134885 81.9293759,42.0313744 C82.0010109,42.2359624 82.0767048,42.4452748 82.1564587,42.6592941 C82.2355082,42.8714232 82.3481253,43.1620691 82.4947369,43.5320552 C82.6378701,43.8954844 82.7534084,44.1797465 82.8400123,44.3819865 C82.9248255,44.5800445 83.0477901,44.8494909 83.2082988,45.1883268 C83.3671554,45.5245423 83.491177,45.7770669 83.5771809,45.9403656 C83.6657367,46.1085099 83.7998493,46.3501086 83.9751989,46.6570199 C84.1625611,46.9824124 84.312493,47.2438556 84.4252132,47.4417385 C84.5247996,47.6165645 84.6675882,47.8524637 84.8502541,48.1434277 C85.0398336,48.4439868 85.2287963,48.7362974 85.4171299,49.0203545 C85.6045583,49.3030463 85.7852895,49.568217 85.9592373,49.8157909 C86.1422755,50.0763028 86.3203012,50.3308975 86.4933166,50.5795787 C86.672317,50.8368626 86.8417201,51.0871141 86.9993268,51.327032 C87.1674417,51.5814121 87.319397,51.82494 87.4566614,52.0604468 C87.5924762,52.2944832 87.7138547,52.5177942 87.8208464,52.7309015 C87.945298,52.9787857 88.0565464,53.2482491 88.1558984,53.5396099 C88.3451264,54.0945423 88.3451264,54.671324 88.1193375,55.209973 C87.7232403,56.1503154 86.7390803,56.5252353 85.8184295,56.1714841 C85.6512709,56.107255 85.4744664,56.0476435 85.2864274,55.9923373 C85.0831816,55.9323144 84.88011,55.8769241 84.6840447,55.8278505 C84.4858725,55.7792792 84.2763274,55.7339905 84.0564691,55.6922731 C83.8309377,55.6496381 83.6295691,55.6158434 83.4596638,55.5917585 C83.2657852,55.5651782 83.0579885,55.5380716 82.8421013,55.5111607 C82.6110439,55.4832998 82.3867871,55.4554192 82.1624004,55.4266116 C81.9512826,55.3985001 81.7231958,55.368548 81.4774775,55.3366695 C81.2470225,55.3066603 81.0184936,55.2805338 80.7973456,55.2588083 C80.547951,55.2352614 80.2945188,55.20938 80.0317903,55.1805812 C79.7768567,55.1517149 79.516952,55.1210036 79.2520705,55.0884478 C78.9784121,55.0548134 78.6954589,55.0160015 78.3978147,54.9712112 C78.1077488,54.9264762 77.8266697,54.8797506 77.5545464,54.8310153 C77.2886435,54.783394 77.0069507,54.7312036 76.7137564,54.6752613 C76.4386989,54.6236461 76.1731073,54.5786304 75.9177512,54.5402957 C75.6612503,54.5019172 75.4100076,54.4691568 75.1640405,54.4419936 C74.9137488,54.4143528 74.6592659,54.3901378 74.4009828,54.3693892 C74.1336276,54.3479834 73.8588793,54.3278962 73.5813598,54.3094312 C73.2899597,54.2909732 73.0040148,54.2720485 72.7235221,54.2526567 C72.4567994,54.2342168 72.1914851,54.2188556 71.9227251,54.2063369 C71.6465268,54.1925617 71.3685063,54.1783279 71.0889137,54.1636489 C70.8112761,54.1491201 70.5414267,54.1355032 70.2796139,54.1228099 C70.0138835,54.1099711 69.7344766,54.0962186 69.4413871,54.0815523 C69.1391202,54.0664266 68.8476462,54.0489051 68.5665729,54.0289478 C68.2594131,54.0070644 67.9656916,53.9749865 67.6844068,53.9323328 C67.3991712,53.8889157 67.0948763,53.8273706 66.7650604,53.7466963 C66.6414809,53.7159758 66.524938,53.6854621 66.4149502,53.6549372 C66.3714873,53.7745156 66.3277066,53.8899064 66.2833723,54.0016471 C66.2048111,54.1982098 66.1132172,54.4204934 66.0073864,54.6714428 C65.9021212,54.9197694 65.785533,55.188749 65.6559718,55.4821417 C65.5365542,55.7506165 65.421919,56.020336 65.3120621,56.2913056 C65.1969992,56.575116 65.0768824,56.8736104 64.9530762,57.183365 C64.8333656,57.4850709 64.7133357,57.8016108 64.5946209,58.1285363 C64.4762861,58.4577045 64.3659316,58.7825145 64.2646385,59.0995128 C64.1632225,59.4196229 64.0707003,59.7311654 63.9873381,60.0330598 C63.9007182,60.3476471 63.8144766,60.670533 63.7288608,61.0007771 C63.6385571,61.3500465 63.5431418,61.7033228 63.4438508,62.0562052 C63.3423994,62.4211521 63.2306973,62.7966613 63.1090707,63.1818065 C62.9908331,63.557146 62.8963171,63.853444 62.8274736,64.0646126 C62.7518852,64.30064 62.672494,64.5298973 62.5905435,64.7489296 C62.5192889,64.9408569 62.4456139,65.1444005 62.3677519,65.3645551 C62.2868923,65.5905876 62.2014827,65.8261195 62.1108942,66.0728664 C62.021323,66.3159216 61.9340123,66.5507887 61.8482616,66.7793279 C61.7696273,66.9880492 61.6887481,67.2136614 61.6057227,67.4560156 C61.5153766,67.719739 61.4244846,67.9780254 61.3330402,68.2308809 C61.1984206,68.6033802 61.1984206,68.6033802 61.0540412,69.0038975 C60.9585457,69.2665001 60.8699129,69.51523 60.7881568,69.7500249 C60.7000254,70.0031292 60.6049868,70.2650561 60.5030385,70.5358673 C60.4057115,70.7944032 60.311128,71.0465272 60.2176149,71.2966937 C60.1271575,71.536334 60.0417112,71.7680684 59.9606517,71.9936111 C59.8723237,72.2384103 59.7765785,72.4910343 59.6734183,72.7515566 C59.5812907,72.9842167 59.4935312,73.2162795 59.4111809,73.4448287 C59.3184705,73.7038553 59.2245617,73.9543208 59.1320008,74.189645 C59.0500094,74.4011348 58.9703757,74.6186095 58.8936808,74.840443 C58.8061329,75.0946343 58.7205684,75.3326677 58.6376287,75.5527287 C58.5626336,75.752587 58.4874877,75.959406 58.411058,76.176417 C58.3290806,76.4074603 58.2447742,76.6393735 58.1588136,76.8703427 C58.0759002,77.0940298 57.9653645,77.3955294 57.8274089,77.774307 C57.6899187,78.1518068 57.5888722,78.4317163 57.5248428,78.6123902 C57.4600672,78.7951696 57.3699492,79.0521464 57.2547116,79.3827021 C57.1484613,79.6874777 57.0552274,79.9828191 56.9752349,80.267558 C56.8931883,80.5604569 56.8225922,80.8380237 56.7645836,81.0947314 C56.7070684,81.35376 56.6597703,81.6010526 56.6233505,81.8315812 C56.5814702,82.1026274 56.5390988,82.3677804 56.4970628,82.6219748 C56.4561833,82.8747242 56.4171324,83.1183093 56.380048,83.351857 C56.3414094,83.5961386 56.3004353,83.8426541 56.2561931,84.0967139 C56.2143622,84.3318698 56.1752474,84.5600769 56.1397685,84.7756521 C56.1029315,85.0051485 56.0656342,85.234644 56.0278766,85.4641387 C55.9998995,85.6341859 55.980463,85.8248182 55.9700324,86.0408589 C55.9590399,86.2528186 55.9590399,86.4497335 55.969866,86.6370038 C56.0333562,87.8125255 55.0707887,88.7475407 53.8315907,88.4005111 C53.6102209,88.3385179 53.3826434,88.2688257 53.1559043,88.1938135 C52.9327679,88.121283 52.7231102,88.0508613 52.530788,87.9838649 C52.2454681,87.8854067 52.2454681,87.8854067 51.9256428,87.7750616 C51.7032035,87.6973814 51.4678161,87.6128753 51.2165021,87.520458 C51.0032176,87.4415189 50.7514978,87.3576819 50.4587169,87.2684969 C50.1546794,87.1750066 49.8427986,87.0831765 49.5220638,86.99273 C49.2054687,86.9032039 48.9517931,86.8346341 48.7636562,86.7875617 C48.5517419,86.7345401 48.3376077,86.6791891 48.1270352,86.6230395 C47.812527,86.5405797 47.812527,86.5405797 47.4958478,86.4575933 C47.2891876,86.4036766 47.0681411,86.3478159 46.8264564,86.2884717 C46.5921888,86.2298573 46.3695026,86.1758021 46.1571238,86.1259986 C45.9294596,86.0723871 45.6920425,86.0137003 45.4448045,85.9499372 C45.2148026,85.8906194 44.9708946,85.8298148 44.7085005,85.7664188 C44.4450354,85.7018629 44.1911849,85.6400531 43.9431774,85.5800717 C43.6924898,85.5187427 43.4282298,85.4528561 43.147053,85.3815627 C42.8601341,85.3081052 42.5719359,85.2303954 42.2824575,85.148437 C41.999679,85.0683755 41.7069631,84.9837445 41.4042893,84.8945411 C41.0885885,84.8014985 40.7957249,84.7093252 40.5269193,84.6183453 C40.1335593,84.4857495 40.1335593,84.4857495 39.6734313,84.3308633 C39.3463401,84.2198466 39.0144059,84.1023195 38.6788634,83.9787465 C38.3591116,83.8613193 38.0633212,83.7548914 37.7902058,83.6589986 C37.5096642,83.5601751 37.2191355,83.4567921 36.9210217,83.3497111 C36.6274526,83.2448445 36.3357262,83.1417986 36.0458431,83.0405735 C35.772219,82.9450259 35.522701,82.8634758 35.2916454,82.7940879 C35.0570439,82.7225156 34.781771,82.642291 34.462726,82.5525937 C34.1457025,82.4625786 33.8756079,82.3881315 33.6518478,82.3290595 C33.4427368,82.2736373 33.1910216,82.2135154 32.8930701,82.1481133 C32.5886307,82.0802066 32.3077162,82.0196117 32.0457368,81.9653569 C31.7947608,81.9125225 31.534465,81.8617236 31.2648803,81.8129849 C30.9863823,81.7626348 30.7262864,81.7168566 30.4837746,81.675506 C30.2511805,81.6356992 30.0139396,81.5984378 29.7720573,81.5637311 C29.5244893,81.5282087 29.2760063,81.4944586 29.0310649,81.4630458 C28.7686163,81.4302131 28.5292234,81.398676 28.3118066,81.3682697 C28.1331464,81.3431743 27.9487771,81.3230664 27.758696,81.3080061 C27.5430227,81.2909181 27.3351727,81.2751932 27.135627,81.2608643 C26.9519052,81.2477306 26.6822875,81.2347992 26.3276439,81.2224335 C25.9529087,81.2084046 25.5958004,81.1920102 25.2519887,81.1729934 C24.9177836,81.1535363 24.6067352,81.134051 24.3190805,81.1145489 C24.0116569,81.0937735 23.729469,81.068281 23.4718379,81.0378274 C23.2520542,81.0118476 23.0491013,80.9903309 22.8692729,80.9738068 C22.6745183,80.9567407 22.4599416,80.9387322 22.2312085,80.9202319 C21.9669977,80.8998915 21.7007357,80.8719747 21.4270511,80.8357882 C20.5217289,80.7127011 19.8118735,80.054894 19.7888189,79.0666722 C19.7823755,78.7216686 19.8284392,78.3803585 19.926437,78.0459353 C19.9855442,77.8451955 20.0559109,77.6171564 20.1381512,77.3597102 C20.2206402,77.1024428 20.299316,76.86719 20.3743475,76.6536155 C20.4330849,76.4864214 20.4902191,76.3024322 20.5468687,76.0967452 C20.6139858,75.8564412 20.6879346,75.6004743 20.7700671,75.3242727 C20.8466566,75.0696481 20.9257277,74.7964324 21.0069229,74.5058371 C21.092408,74.1989569 21.1824633,73.8825783 21.2757142,73.5614548 C21.3701163,73.2321825 21.4718284,72.8880418 21.5798464,72.5323236 C21.6886369,72.1709584 21.7816223,71.8714629 21.8609708,71.6273728 C21.9348024,71.4029949 22.0040538,71.1901214 22.0693045,70.9869584 C22.1849217,70.628414 22.1849217,70.628414 22.3694221,70.0557019 C22.5047965,69.6363455 22.6123298,69.3065555 22.6939446,69.0605906 C22.7780177,68.8101006 22.8646095,68.5641546 22.9537301,68.3227518 C23.0371586,68.0967674 23.1201331,67.8707846 23.2020056,67.6465816 C23.2855604,67.4168492 23.3741268,67.1743566 23.4677084,66.9190937 C23.6073025,66.5383855 23.6073025,66.5383855 23.7482161,66.1543757 C23.8437665,65.8974929 23.9344097,65.6587149 24.0209718,65.43595 C24.10619,65.2175768 24.2076667,64.9622816 24.3261347,64.6682075 C24.4416959,64.3822571 24.5458255,64.1237696 24.6385085,63.8927835 C24.7782499,63.5445174 24.7782499,63.5445174 24.9154162,63.2027134 C25.0114661,62.9600143 25.1174994,62.7004006 25.231234,62.4292839 C25.3447322,62.1555499 25.4582711,61.8859089 25.5725885,61.6186422 C25.6813846,61.3651736 25.7833161,61.1232795 25.8765293,60.8974888 C25.9788267,60.6473328 26.0885206,60.3902095 26.2074206,60.1219964 C26.3148713,59.8815659 26.4173903,59.6444893 26.5167812,59.4064871 C26.619301,59.1631453 26.7186183,58.9262243 26.8166296,58.6911976 C26.910712,58.4676805 27.0067867,58.2330327 27.1065172,57.9830733 C27.2106676,57.7243473 27.3148526,57.4692591 27.4201103,57.2153135 C27.5208795,56.9734495 27.6166242,56.7394643 27.7073399,56.5133812 C27.7965483,56.2910544 27.885454,56.0622539 27.9757392,55.8225131 C28.0701168,55.5743391 28.1595153,55.3416216 28.244725,55.1223372 C28.3230603,54.9216016 28.3974136,54.7233086 28.4651967,54.5347456 C28.5409852,54.3203052 28.6262804,54.0833373 28.7205485,53.8252797 C28.8728437,53.4068705 28.8728437,53.4068705 29.0750016,52.8514556 C29.215556,52.4643932 29.324165,52.1587938 29.4002155,51.9365808 C29.4832048,51.6940935 29.5935447,51.3839512 29.7306389,51.0075733 C29.8674617,50.6293748 29.9722406,50.3447441 30.0430151,50.1589981 C30.1158344,49.964336 30.220788,49.6928294 30.3579546,49.344073 C30.4946178,48.9951593 30.6011243,48.7272744 30.6797598,48.5349108 C30.7541803,48.3541583 30.8469356,48.1279973 30.9573222,47.8581482 C31.0669466,47.5892604 31.1761433,47.3176212 31.2849114,47.043231 C31.3961495,46.7626097 31.498739,46.5052372 31.5926996,46.2710669 C31.692899,46.021348 31.7957931,45.7784391 31.9044567,45.535572 C32.0085743,45.3059414 32.1098007,45.0902366 32.2070197,44.8908299 C32.3179441,44.662206 32.452654,44.4143296 32.6115348,44.1451561 C32.7663407,43.8828864 32.9155937,43.6457356 33.0619331,43.4303003 C33.1540445,43.2953611 33.2468668,43.1611199 33.3411058,43.0265823 C33.2808917,42.9804852 33.2148745,42.9326028 33.1433015,42.8832816 Z M64.2934275,15.148345 C64.0603072,15.259724 63.7942734,15.3672265 63.4884157,15.4747397 C63.2154527,15.5697179 62.9462823,15.6575514 62.6775507,15.7392282 C62.4309399,15.8135467 62.1606305,15.8947054 61.8666021,15.9827105 C61.5684319,16.0719553 61.2566722,16.1634233 60.9275862,16.2581892 C60.6113269,16.3483647 60.3581759,16.4215866 60.1629365,16.479366 C59.8653694,16.5660843 59.8653694,16.5660843 59.5446634,16.65967 C59.330867,16.722339 59.1101371,16.7882085 58.8824878,16.8572763 C58.5344128,16.9627697 58.5344128,16.9627697 58.1908701,17.0664438 C57.9805268,17.1298516 57.7309933,17.21037 57.4433341,17.3077839 C57.1551125,17.4053882 56.900247,17.4957444 56.682204,17.5774681 C56.4422835,17.6679731 56.1723915,17.768919 55.872441,17.8803408 C55.5886995,17.9857414 55.2982838,18.0987725 54.9977902,18.2208315 C54.6884953,18.3455604 54.3691316,18.4748665 54.039703,18.6087487 C53.7136588,18.7412553 53.4023081,18.8695891 53.1007335,18.9957939 C52.8111735,19.1157394 52.5172984,19.2424143 52.2191231,19.3758244 C51.9067209,19.5156 51.6079786,19.6485332 51.3228833,19.7746293 C51.0380098,19.9006272 50.7526789,20.0261644 50.4684796,20.1505442 C50.1798158,20.2772867 49.8726008,20.4098545 49.543518,20.5496594 C49.2217364,20.6854496 48.9118065,20.8157625 48.6122446,20.9412185 C48.3117568,21.0666772 48.0463178,21.176635 47.8138587,21.271935 C47.5680068,21.372324 47.2799874,21.4830791 46.945161,21.6060725 C46.6336273,21.7196133 46.3624577,21.8198118 46.1348427,21.905454 C45.8813429,22.0014508 45.6114127,22.0978283 45.3291035,22.1932734 C45.0550468,22.2868619 44.7909654,22.3758879 44.5368408,22.4603555 C44.2826903,22.5448317 44.0027234,22.6365316 43.6980811,22.7350905 C43.4007947,22.8315616 43.1424895,22.9165344 42.9200368,22.9910437 C42.6954882,23.065647 42.4336507,23.1520775 42.1344262,23.250369 C41.847763,23.3445343 41.5989598,23.4292834 41.3836619,23.5061015 C41.1523761,23.5876864 40.8893074,23.6776451 40.5980617,23.7747996 C40.3253667,23.8666381 40.0595719,23.9609313 39.7981534,24.0586041 C39.5323927,24.1573446 39.2466752,24.2661927 38.9424614,24.3845934 C38.6323729,24.5056352 38.3620702,24.6115708 38.1362871,24.7005248 C37.9060286,24.7921586 37.6244046,24.9048997 37.2902927,25.0392004 C36.9682743,25.168288 36.6749258,25.2906158 36.4052128,25.4083114 C36.1130993,25.5344234 35.8262372,25.6535678 35.539013,25.7679509 C35.2802735,25.8697752 35.0237873,25.9742081 34.7655862,26.082912 C34.5062451,26.1912077 34.2233255,26.3114676 33.916941,26.4436526 C33.5992818,26.580702 33.3233632,26.6977116 33.0840031,26.796795 C32.8533019,26.8913759 32.6089983,26.9904732 32.3451847,27.0964481 C32.0790866,27.2020227 31.8268276,27.2989039 31.5834039,27.3889068 C31.2457565,27.5124309 31.2457565,27.5124309 30.9228161,27.6306796 C30.7052901,27.7106899 30.490019,27.7888647 30.271648,27.8671105 C30.0491987,27.9458573 29.8315244,28.019449 29.6243801,28.086004 C29.4189281,28.1529716 29.1448381,28.2400623 28.8043725,28.346597 C28.4473379,28.4592842 28.1142659,28.5576396 27.8100236,28.6402349 C27.5031489,28.7247912 27.2014502,28.8017381 26.9093464,28.8700078 C26.6039304,28.9424019 26.3131078,29.0027433 26.0322044,29.0516744 C25.6637553,29.1146594 25.6637553,29.1146594 25.2936367,29.1776242 C25.0483425,29.2183853 24.8034991,29.2582221 24.5582589,29.297269 C24.3295345,29.3335491 24.089013,29.3751866 23.8367824,29.4221918 C23.6168243,29.4631828 23.406597,29.5124889 23.2046219,29.5703495 C22.9639141,29.6390516 22.7070005,29.714176 22.4339501,29.7957096 C22.1637645,29.8763878 21.9097457,29.9546449 21.6734762,30.0299614 C21.4432588,30.1036222 21.2316858,30.1750542 21.0336436,30.2460148 C20.9476661,30.2764507 20.8590917,30.3081287 20.7679268,30.3410471 C21.0462014,30.5867407 21.2573872,30.7741011 21.4773825,30.9703231 C21.8170859,31.2732387 21.8170859,31.2732387 22.2075988,31.6217585 C22.469739,31.8548627 22.7359292,32.0862506 23.0043664,32.3143898 C23.2755356,32.5440951 23.5502955,32.7716214 23.8251078,32.9941114 C24.1106058,33.2237803 24.3933341,33.4493329 24.6710017,33.6689618 C24.9547776,33.8925023 25.2317103,34.1110215 25.5037002,34.3260244 C25.7683103,34.5359027 26.0269192,34.7389067 26.2789381,34.9345821 C26.5415294,35.1382556 26.8085514,35.3492336 27.0824074,35.5694455 C27.3418087,35.7789255 27.5841203,35.9718604 27.8070304,36.1464568 C28.0457408,36.3326892 28.2893284,36.5262144 28.5378116,36.7270392 C28.7762609,36.9197546 29.0257345,37.1194055 29.2818356,37.3225151 C29.5230915,37.5123461 29.7687576,37.6937292 30.0161424,37.8648229 C30.2674353,38.0377792 30.5342318,38.2099104 30.8165212,38.3811082 C31.0937758,38.5492526 31.3706521,38.7045283 31.6456509,38.846236 C31.9364172,38.9956462 32.2129883,39.1318816 32.4699643,39.2524758 C32.7509838,39.3829895 33.0151457,39.5062119 33.2605785,39.6212679 C33.5224611,39.743579 33.7659471,39.8622467 33.9890311,39.976319 C34.2563733,40.1124456 34.5267924,40.2749433 34.8036409,40.4649396 C35.0799731,40.6553556 35.3231241,40.8460566 35.5308137,41.0370044 C35.7434075,41.2313229 35.9402988,41.4406897 36.1204582,41.6639258 C36.6416076,42.3088433 36.6936407,43.144131 36.2955105,43.8502889 C36.1579863,44.0973566 36.0090414,44.3337082 35.8506893,44.5562483 C35.7267414,44.731324 35.6041013,44.9077347 35.484666,45.0826954 C35.3770258,45.2411643 35.2604961,45.4263205 35.1358191,45.6375464 C35.015217,45.8418685 34.9179379,46.0208695 34.8431504,46.1750064 C34.7570909,46.3515289 34.6674286,46.5425916 34.5773096,46.7413031 C34.4874725,46.9421303 34.3994779,47.1498649 34.3133555,47.3645008 C34.2209942,47.5946854 34.1199082,47.848286 34.0101174,48.1252561 C33.8978566,48.4084573 33.785111,48.688925 33.6712291,48.9682529 C33.5594108,49.2416047 33.4658442,49.4697436 33.3918913,49.6493479 C33.3211505,49.8224104 33.2194148,50.0782958 33.0868045,50.4168582 C32.9543725,50.7535802 32.8547373,51.0113284 32.7856439,51.1959561 C32.7188483,51.3713285 32.6190384,51.6424611 32.4862493,52.0094994 C32.3540832,52.3723576 32.2497876,52.665511 32.1738552,52.8873784 C32.0909842,53.1295202 31.9767375,53.4509827 31.8301291,53.8547157 C31.6275927,54.4111717 31.6275927,54.4111717 31.4747091,54.8311947 C31.3832344,55.0816082 31.3013878,55.308995 31.2266209,55.5204837 C31.1472098,55.7414646 31.0635548,55.9645645 30.976433,56.1878115 C30.894643,56.3982992 30.8077664,56.6244521 30.7175164,56.86175 C30.621612,57.1164356 30.5251093,57.3647871 30.4279957,57.6068151 C30.3323895,57.8450868 30.2317656,58.0909958 30.1271556,58.3420718 C30.0267882,58.5842254 29.9263845,58.8300554 29.827637,59.0753409 C29.7229146,59.3378317 29.6198805,59.5894768 29.5204055,59.8257842 C29.4228903,60.0596426 29.3221855,60.2998735 29.2200898,60.5421895 C29.113092,60.7984279 29.0009754,61.0576991 28.8855538,61.3159485 C28.7797882,61.5545482 28.68124,61.7855458 28.5880676,62.0133667 C28.4876667,62.2565905 28.3804427,62.5110442 28.2671188,62.7750587 C28.1578449,63.0305367 28.0485283,63.2901505 27.9368486,63.5594663 C27.8282231,63.8184347 27.7296677,64.0597392 27.6386472,64.2896852 L27.3591644,64.9862174 C27.2655254,65.2195862 27.1604995,65.4802985 27.0446777,65.7668912 C26.9305507,66.0501921 26.8329187,66.295815 26.7526798,66.5014244 C26.6722423,66.7084316 26.5866104,66.9340085 26.4980706,67.1720032 C26.359553,67.5495247 26.359553,67.5495247 26.2201208,67.9297916 C26.1273805,68.1827596 26.0396718,68.4229035 25.9563502,68.6519915 C25.8726423,68.8812242 25.7884751,69.1104553 25.7038486,69.3396849 C25.6249142,69.5534961 25.5480176,69.7719049 25.4747821,69.9900769 C25.397689,70.2224413 25.2924134,70.5453074 25.159554,70.9568718 C24.9752317,71.5290321 24.9752317,71.5290321 24.8599034,71.8866773 C24.7930458,72.0948477 24.7216425,72.314336 24.64734,72.5401143 C24.5770729,72.756296 24.4901298,73.0363298 24.3860145,73.382151 C24.2813206,73.7269363 24.183924,74.0564757 24.0924545,74.3754889 C24.0007599,74.6912823 23.9136267,74.9973952 23.8307468,75.2949214 C23.7441969,75.6046827 23.6597797,75.8963712 23.5787824,76.1656238 C23.5024851,76.4222263 23.4330391,76.6626072 23.3718947,76.8814905 C23.2992432,77.1453258 23.222116,77.3936985 23.1401986,77.6268733 C23.0955219,77.7540439 23.0487244,77.8919269 23.0000119,78.0399389 C23.3433876,78.0708186 23.5715324,78.0950061 23.8157267,78.1238714 C24.0220737,78.1482629 24.2559244,78.1693886 24.5169171,78.1870263 C24.7952178,78.2058942 25.0970223,78.2248005 25.4179861,78.2434929 C25.739699,78.2612815 26.0794711,78.27688 26.4334612,78.2901372 C26.8169207,78.3035023 27.1190555,78.3179934 27.3449772,78.3341438 C27.5523163,78.3490323 27.7673441,78.3653003 27.9900752,78.3829475 C28.2383986,78.4026224 28.4814737,78.4291328 28.718425,78.4624164 C28.9201919,78.4906338 29.1456904,78.5203404 29.3991708,78.5520582 C29.6630709,78.5858949 29.9260598,78.6216152 30.1881369,78.6592195 C30.4558998,78.6976396 30.7191708,78.7389894 30.9770657,78.7831265 C31.2286483,78.8260235 31.4982911,78.873482 31.7860656,78.9255092 C32.0827533,78.9791479 32.3704632,79.0352969 32.6444839,79.0929908 C32.9169852,79.1494161 33.21239,79.2131367 33.5259708,79.2830911 C33.8576251,79.3558814 34.1493488,79.4255594 34.401008,79.4922591 C34.6426072,79.5560398 34.9296516,79.6351589 35.2592578,79.7287518 C35.5941831,79.8229083 35.8897494,79.9090471 36.1403134,79.9855043 C36.4086757,80.0660783 36.6989432,80.1609466 37.0116851,80.2701538 C37.308168,80.3736836 37.606461,80.4790489 37.908978,80.5871143 C38.2039503,80.6930645 38.4888274,80.7944364 38.7621776,80.8907274 C39.0476218,80.9909482 39.3564642,81.1020723 39.6900886,81.2245948 C40.0035966,81.3400523 40.3119156,81.4492181 40.6114172,81.5508759 C41.0687022,81.7048003 41.0687022,81.7048003 41.464628,81.8382621 C41.6966331,81.9167857 41.9526885,81.9973743 42.2324871,82.0798359 C42.5253127,82.1661368 42.8080027,82.2478691 43.0805365,82.3250301 C43.3463705,82.4002942 43.6107445,82.4715801 43.8703485,82.5380484 C44.1404868,82.606539 44.3968321,82.6704523 44.6355717,82.7288636 C44.8827204,82.788632 45.1394285,82.8511377 45.4010644,82.9152534 C45.6730468,82.9809576 45.9314772,83.0453825 46.1764135,83.108552 C46.4041137,83.1672762 46.6215412,83.2210218 46.8272966,83.2694748 C47.0528271,83.3223617 47.2895523,83.3798247 47.5312055,83.440302 C47.7799166,83.5013562 48.0146281,83.5606701 48.2368977,83.6186601 C48.5553329,83.7021057 48.5553329,83.7021057 48.875903,83.7861677 C49.0778562,83.8400068 49.2774663,83.8916036 49.4747294,83.9409594 C49.6957701,83.9962645 49.9763999,84.07212 50.3182182,84.1687791 C50.6597636,84.2650938 50.993616,84.3633932 51.3160691,84.4625516 C51.6572105,84.5664615 51.9626297,84.6681836 52.2305263,84.7673386 C52.4643478,84.8533201 52.6847183,84.932435 52.8862893,85.0028388 C52.9920665,85.03933 53.062293,85.0635569 53.1199072,85.0834341 C53.1721373,84.7616956 53.2088207,84.5359772 53.2459719,84.304594 C53.2844664,84.0706208 53.3257257,83.8299027 53.3688147,83.5877304 C53.4095344,83.3538455 53.4480211,83.1222948 53.4844139,82.8922136 C53.5220863,82.654961 53.5615828,82.4085969 53.6037336,82.1480433 C53.6448957,81.8990791 53.6856385,81.6441181 53.7267186,81.378305 C53.7735668,81.0816988 53.8322164,80.7750564 53.9037575,80.4529061 C53.9742552,80.1408746 54.0571007,79.8151458 54.152541,79.4744345 C54.2494385,79.1295191 54.3607934,78.7767748 54.4865322,78.416097 C54.6032836,78.0811994 54.6949208,77.8198904 54.7616665,77.6315516 C54.8291585,77.4411073 54.9327007,77.1542845 55.0728667,76.769438 C55.2125672,76.3858693 55.3248872,76.0795029 55.4107028,75.8479896 C55.4921233,75.6292158 55.5713052,75.4113995 55.647101,75.1977904 C55.7289146,74.9654794 55.8108637,74.7399366 55.8937086,74.5191632 C55.9671188,74.3243828 56.0432159,74.1126868 56.1224568,73.8826177 C56.2114299,73.6252667 56.3035046,73.3738162 56.4012819,73.1216559 C56.485156,72.9083741 56.5684356,72.686258 56.6521346,72.4524183 C56.7459252,72.1921073 56.8444876,71.9314787 56.9478154,71.6705333 C57.0401104,71.4374501 57.1252072,71.2129221 57.2024797,70.9987663 C57.2882764,70.7600389 57.3791052,70.5137072 57.4732958,70.2641984 C57.5659519,70.016303 57.6613436,69.7620243 57.7594719,69.5013603 C57.852979,69.2529717 57.9396956,69.0139804 58.0196192,68.7844482 C58.1059181,68.5366066 58.1990405,68.2752775 58.2974992,68.004546 C58.4409539,67.6065766 58.4409539,67.6065766 58.5762271,67.232269 C58.6619712,66.9951754 58.7473543,66.7525436 58.83237,66.5043798 C58.9247063,66.2348468 59.0155356,65.9814788 59.1042603,65.7459781 C59.1872607,65.524765 59.2725717,65.2952772 59.359566,65.0592179 C59.4467891,64.8216345 59.5294344,64.5937257 59.605701,64.3805613 C59.6867295,64.1514229 59.7655827,63.9335736 59.8435801,63.7234974 C59.9101273,63.5456235 59.9741309,63.3608007 60.0378579,63.1618741 C60.1055285,62.954242 60.1973344,62.6664401 60.3132248,62.2985528 C60.4251017,61.9442801 60.5271217,61.6013191 60.6205315,61.2653268 C60.7154633,60.9279121 60.8054565,60.5947111 60.8907556,60.2647993 C60.9802606,59.9195518 61.0702942,59.5824688 61.1611473,59.252509 C61.254689,58.913748 61.3576221,58.5671499 61.4710227,58.209226 C61.5841841,57.8550698 61.7058186,57.4970589 61.837503,57.1307785 C61.9674542,56.7728854 62.0976802,56.4294565 62.2295829,56.0970354 C62.3565018,55.7794806 62.4784208,55.4765075 62.595347,55.1881012 C62.7174791,54.8868541 62.8448797,54.5870991 62.9759426,54.2924565 C63.0982393,54.0155021 63.2090735,53.7597973 63.3073364,53.527996 C63.4053283,53.2956284 63.4900096,53.0901206 63.5598591,52.9153678 C63.6239744,52.753761 63.6896715,52.5734515 63.7549276,52.379945 C63.8375328,52.1319283 63.9211154,51.9016312 64.008346,51.6828745 C64.3372393,50.868002 65.1153952,50.438577 65.9592112,50.5304628 C66.2879143,50.5647305 66.6012203,50.6325273 66.8934943,50.7343391 C67.0332924,50.7825845 67.2275815,50.8383032 67.4664269,50.8976883 C67.7100966,50.957283 67.9300604,51.0017717 68.1244269,51.0313573 C68.3262032,51.0619543 68.5430403,51.0856356 68.7744027,51.1021188 C69.0343781,51.120578 69.3055233,51.1368776 69.5877957,51.1510026 C69.8792455,51.165587 70.1569776,51.179257 70.4212299,51.1920244 C70.6870853,51.2049137 70.9606747,51.2187193 71.2422531,51.2334543 C71.5195492,51.2480128 71.7950144,51.2621157 72.0637952,51.275529 C72.3497207,51.2888387 72.6369787,51.3054704 72.9255683,51.3254221 C73.200388,51.3444217 73.4807156,51.3629746 73.7711579,51.3813792 C74.0662611,51.4010064 74.3541319,51.422053 74.6351707,51.4445545 C74.9226781,51.4676507 75.206154,51.4946245 75.4856011,51.525485 C75.7693728,51.5568232 76.0579156,51.5944473 76.3519536,51.6384423 C76.6438965,51.6822693 76.9445774,51.7332324 77.258405,51.7921297 C77.5454042,51.8468833 77.8162837,51.8970703 78.0709861,51.9426857 C78.3194681,51.987187 78.5772611,52.0300416 78.8389923,52.0704168 C79.1056559,52.110536 79.3624881,52.145765 79.6094351,52.1761164 C79.8651589,52.2075466 80.1158127,52.2371648 80.3561388,52.2643866 C80.5991743,52.291018 80.8380337,52.3154112 81.0781665,52.3380939 C81.3356343,52.3633754 81.5948304,52.393008 81.8550649,52.4268952 C82.1032405,52.4590922 82.3345651,52.4894696 82.5421448,52.5171267 C82.7521227,52.5440688 82.9690104,52.5710332 83.1985548,52.5987232 C83.4317551,52.6277797 83.6514027,52.6564323 83.8640718,52.6856035 C84.0433137,52.7109963 84.2364446,52.7424778 84.4443775,52.7801243 C84.3308496,52.6098716 84.2118178,52.4352373 84.0872888,52.2562472 C83.9168873,52.011323 83.7414494,51.7604291 83.5609772,51.5035692 C83.3714147,51.2337714 83.1758487,50.9468352 82.9741931,50.6426849 C82.7734427,50.3398999 82.5724081,50.0289149 82.3694269,49.7071028 C82.1646589,49.3809397 82.0014777,49.1113503 81.8782084,48.8949483 C81.768073,48.7016031 81.6202552,48.4438464 81.4325363,48.1178179 C81.2395061,47.7799787 81.0904825,47.5115184 80.983583,47.3085445 C80.8741315,47.100725 80.7332837,46.8139398 80.5584847,46.443981 C80.3840822,46.075817 80.2467442,45.7748748 80.1452354,45.5378287 C80.0455175,45.3049646 79.9199332,44.9959859 79.7682776,44.6109087 C79.6160054,44.2266468 79.4966333,43.9185674 79.4094545,43.6846234 C79.3229801,43.4525696 79.2406657,43.2249497 79.161312,42.998304 C79.0902305,42.7936688 78.9810158,42.489053 78.8340933,42.0858145 C78.6859179,41.6782288 78.5423251,41.2857566 78.4039967,40.9102435 C78.2649588,40.5343557 78.159216,40.2515456 78.0887433,40.0669357 C78.0122175,39.8679939 77.9064037,39.5886775 77.770904,39.2279741 C77.6391444,38.877227 77.5370631,38.609994 77.4633237,38.4227609 C77.3983872,38.2558751 77.292017,38.0036287 77.1455791,37.6703836 C76.9977898,37.3329379 76.8474121,37.0005104 76.6937151,36.6715249 C76.5328466,36.3261256 76.378406,35.9865489 76.2317912,35.6559234 C76.0789497,35.3134343 75.9319374,34.9662805 75.7907519,34.614472 C75.6481196,34.2590584 75.5150543,33.9042535 75.3915759,33.5500596 C75.2598837,33.1723045 75.1443366,32.779435 75.0449602,32.3723777 C74.9537496,31.9997105 74.865421,31.6202474 74.7801305,31.2347208 C74.6968448,30.8591729 74.6341161,30.5755187 74.5901527,30.3755049 C74.5283917,30.087583 74.5283917,30.087583 74.4647912,29.7931919 C74.4194458,29.583661 74.3592842,29.2873127 74.2844091,28.9052027 C74.2087269,28.524637 74.1362492,28.1522517 74.0668485,27.7873699 C74.0059141,27.4661879 73.9343967,27.158454 73.852437,26.8641245 C73.7681416,26.5614073 73.6782267,26.2754183 73.5837106,26.0086114 C73.4862092,25.7348895 73.3880494,25.4835603 73.2895485,25.2548849 C73.185573,25.0135 73.0721853,24.7638445 72.9468623,24.5006882 C72.8130056,24.2167194 72.6860229,23.9403431 72.5659099,23.6715259 C72.4441935,23.3991202 72.3298799,23.1332935 72.2254987,22.8800893 C72.1191115,22.6253132 72.0146752,22.3673363 71.9105035,22.1018489 C71.8175913,21.8628619 71.7249214,21.6335995 71.6325279,21.4140947 C71.5400645,21.1944241 71.4483184,20.9844867 71.3594936,20.789059 C71.2687828,20.5913695 71.1784494,20.4029516 71.0873166,20.2213848 C71.0008584,20.0483278 70.8953573,19.8496746 70.7731682,19.6300421 C70.6424525,19.3966842 70.5072058,19.1604738 70.3674276,18.9214184 C70.232114,18.6899985 70.1138726,18.4951645 70.0117627,18.3351665 C69.9171884,18.1862074 69.7967539,18.0100448 69.6551172,17.813808 C69.5116913,17.6170422 69.3574754,17.419761 69.1946883,17.2247327 C69.000793,16.9935816 68.8187068,16.7712752 68.6488883,16.558352 C68.4679102,16.3316927 68.301735,16.1113062 68.1530356,15.9007177 C68.0090836,15.6982426 67.8636648,15.486729 67.7167305,15.2661486 C67.581207,15.0626983 67.459542,14.8822745 67.3540819,14.7282727 C67.2562291,14.5861906 67.1469672,14.4357827 67.0270444,14.2782045 C66.7446824,14.2902973 66.55715,14.4145522 66.3572772,14.5205055 L66.0558741,14.6809273 C65.7070481,14.8665899 65.3170638,14.8969887 64.9649844,14.7963081 C64.721894,14.9327655 64.5088239,15.0443644 64.2934275,15.148345 Z M67.2520055,13.8334558 C67.2598908,13.8266823 67.2670649,13.8197888 67.2734168,13.8128842 C67.2707112,13.8158412 67.2680007,13.818793 67.2652855,13.8217394 L67.2520055,13.8334558 Z M66.5530307,13.8513671 C66.5373121,13.8411204 66.5217719,13.831291 66.5064439,13.8218966 C66.5106232,13.8244199 66.5148297,13.8269007 66.519062,13.8293391 L66.5530307,13.8513671 Z M19.8280237,29.5080398 C19.824226,29.503919 19.820385,29.5000179 19.8165174,29.4963559 C19.8177232,29.497486 19.8189287,29.4986156 19.8201341,29.4997447 L19.8280237,29.5080398 Z"/><path d="M17.8399858,38.5179513 C18.3637804,37.9001208 19.288844,37.8242343 19.9061733,38.3484542 C20.5235026,38.8726741 20.5993275,39.7984888 20.075533,40.4163194 C19.8507163,40.681497 19.7198013,40.8648656 19.7065882,40.8940443 C19.6289746,41.0654394 19.5343061,41.2843488 19.4239855,41.5477658 C19.311453,41.8173537 19.1797546,42.1417287 19.029831,42.5186253 C18.871795,42.917351 18.7432686,43.2305596 18.6415489,43.4641016 C18.5519376,43.6689682 18.4645429,43.8737873 18.380217,44.0765033 C18.2924594,44.2883792 18.1909216,44.5351712 18.0750192,44.8183097 C17.9570627,45.1055391 17.8486001,45.3659677 17.7467715,45.6062804 C17.6553461,45.8192095 17.5564367,46.0608483 17.4502914,46.3307805 C17.2838134,46.7539506 17.2838134,46.7539506 17.1219205,47.1646955 C17.0185885,47.4280968 16.9030183,47.7319374 16.7765512,48.0726911 C16.6493713,48.4177898 16.5313332,48.745343 16.4212001,49.0588302 C16.3103791,49.3717255 16.1976877,49.6947356 16.0831314,50.0278505 C15.970316,50.3559034 15.8578215,50.6941057 15.7449551,51.0446285 C15.6253419,51.4141281 15.5073405,51.7646407 15.3921304,52.0927262 C15.2815498,52.410223 15.1709596,52.7304693 15.06036,53.0534647 C14.9467899,53.385135 14.8286337,53.7226657 14.7070746,54.0627419 C14.5879699,54.3985077 14.4748107,54.7191585 14.3684361,55.0222948 C14.2593291,55.334949 14.1433781,55.6597821 14.0201291,55.9980559 C13.842484,56.4840592 13.842484,56.4840592 13.6776158,56.9341827 C13.5701273,57.2259136 13.4681246,57.5034587 13.3700655,57.7710055 C13.2696959,58.0423176 13.169696,58.3063813 13.0690253,58.5658587 C12.9719718,58.8145899 12.8726218,59.0706581 12.770006,59.3365686 C12.6678947,59.5997412 12.5735703,59.8450031 12.4877342,60.0705024 C12.4014608,60.2980534 12.322064,60.50995 12.2475132,60.711643 C12.1679997,60.9241746 12.0864688,61.1335099 12.0038147,61.3374221 C11.9280926,61.5251187 11.8327075,61.7673437 11.7185763,62.0618251 C11.6068608,62.350949 11.5097541,62.6130028 11.4279069,62.845942 C11.3421295,63.0909638 11.2673572,63.3083356 11.203671,63.4977789 C11.1279462,63.7230325 11.0427762,63.9515572 10.9490949,64.1813097 L10.8244236,64.488442 C10.5197078,65.2391207 9.66463523,65.6004444 8.91456558,65.2954812 C8.16449593,64.990518 7.8034653,64.1347512 8.1081811,63.3840725 L8.23371622,63.0748168 C8.30539938,62.8990111 8.36910421,62.7280809 8.42490078,62.5621065 C8.4927359,62.3603217 8.57140525,62.1316204 8.66154439,61.8741423 C8.75450419,61.6095732 8.86198628,61.3195201 8.98462596,61.0021262 C9.103771,60.6947059 9.20384125,60.4405832 9.28611403,60.2366544 C9.35965488,60.0552204 9.43156561,59.8705854 9.49978972,59.6882628 C9.57525102,59.4840721 9.65751589,59.264521 9.74728964,59.0277412 C9.83612993,58.7943461 9.93269414,58.5432603 10.0360273,58.2769452 C10.1389713,58.0101775 10.2396433,57.7507021 10.337014,57.5011654 C10.4310031,57.2589026 10.5255452,57.0092509 10.6190866,56.756416 C10.7162005,56.4914284 10.8187865,56.2122962 10.925965,55.9214132 C11.089412,55.4751622 11.089412,55.4751622 11.2661524,54.9916362 C11.384474,54.6668847 11.4959454,54.3546011 11.6013964,54.0524302 C11.7097348,53.7436906 11.8239979,53.419912 11.9453723,53.0777604 C12.0637524,52.7465655 12.1775852,52.4213852 12.2868707,52.1022275 C12.3991267,51.7743949 12.5113921,51.4492976 12.6248998,51.1234108 C12.7331394,50.815162 12.8434736,50.4874241 12.9551439,50.142467 C13.0731454,49.7759905 13.1917266,49.4194887 13.3109002,49.0729474 C13.428333,48.7314681 13.5439773,48.3999939 13.6565881,48.0820598 C13.7705611,47.7576274 13.8936454,47.4160709 14.0270173,47.0541816 C14.1606038,46.6942336 14.2825027,46.3737546 14.3938372,46.0899606 C14.5561499,45.6781455 14.5561499,45.6781455 14.7221286,45.2562447 C14.838839,44.9594447 14.949085,44.6901104 15.050331,44.4543527 C15.144915,44.231096 15.2492612,43.9805515 15.3626623,43.704417 C15.4793805,43.4192831 15.5824314,43.1688133 15.6727156,42.950842 C15.7647249,42.7296505 15.8590854,42.5085063 15.9548741,42.2895217 C16.0403981,42.0931602 16.1575609,41.8076436 16.3052498,41.4350269 C16.4615409,41.0421198 16.5992786,40.7028696 16.7193991,40.4151063 C16.8404036,40.1261762 16.9457571,39.8825589 17.0361986,39.6828358 C17.1910405,39.3408964 17.4510362,38.9767284 17.8399858,38.5179513 Z"/><path d="M22.4709072,43.766993 C22.8574092,43.0550277 23.7474246,42.7914419 24.4588122,43.1782577 C25.1701999,43.5650735 25.4335718,44.4558116 25.0470699,45.1677769 C24.8298008,45.5680027 24.6863856,45.8734771 24.6189054,46.0677803 C24.5254099,46.3345025 24.4321368,46.6123578 24.3382755,46.9039103 C24.2386491,47.2114186 24.1276682,47.5464906 24.0063733,47.9060605 C23.8890666,48.2564739 23.7964328,48.5390581 23.7288698,48.7524495 C23.6220455,49.0894715 23.6220455,49.0894715 23.5099921,49.4414575 C23.4368046,49.6683441 23.3663433,49.8910578 23.2964672,50.11644 C23.1854485,50.4687029 23.1854485,50.4687029 23.0519264,50.89304 C22.961856,51.180262 22.8841349,51.436906 22.8169591,51.6690189 C22.7472517,51.9058492 22.6702529,52.1663901 22.5859556,52.4506658 C22.504668,52.724792 22.4237045,53.0081729 22.3427748,53.3018911 C22.2586346,53.606337 22.1762896,53.8998715 22.0945092,54.1867814 C22.0159857,54.4591574 21.933694,54.752336 21.8486916,55.0624724 C21.7594447,55.3915438 21.6687169,55.7138186 21.5779516,56.0243066 C21.4884025,56.3347494 21.4061139,56.6165157 21.33105,56.8697145 C21.2547623,57.1270409 21.1667019,57.414876 21.0664322,57.7346847 C20.9679287,58.0479406 20.8721457,58.3498099 20.7773641,58.6456211 C20.68314,58.9359191 20.5816357,59.244835 20.4740105,59.5688706 C20.365364,59.8987923 20.2684874,60.1877934 20.1832447,60.4362294 C20.0514274,60.8203416 20.0514274,60.8203416 19.8913185,61.2866576 C19.7765586,61.6208612 19.6729818,61.9133836 19.5809274,62.163174 C19.4914274,62.4069595 19.3951045,62.667104 19.293994,62.938122 C19.1859348,63.231385 19.0747017,63.5160411 18.9592664,63.7944897 C18.8573814,64.0390394 18.7678062,64.2633736 18.689893,64.4690218 C18.6005784,64.7037858 18.5130776,64.922468 18.4272144,65.1253097 C18.3465518,65.3158657 18.2626945,65.5109102 18.1769475,65.7074488 C18.0938379,65.8991176 17.9877449,66.1455078 17.8573149,66.4497731 C17.7270927,66.7514411 17.6064715,67.0316007 17.4954581,67.2902352 C17.387371,67.5420519 17.2935087,67.7656521 17.2131312,67.9627762 C17.1275466,68.1717347 17.0392024,68.3833685 16.9490006,68.5955568 L16.8161092,68.9095447 C16.5003372,69.6556325 15.6400203,70.0042645 14.8945378,69.6882361 C14.1490553,69.3722076 13.8007061,68.5111922 14.1164782,67.7651044 L14.2502713,67.4489906 C14.3363562,67.2464823 14.4197205,67.0467781 14.4994903,66.8520216 C14.5862151,66.6393258 14.6868947,66.3994852 14.8016633,66.1321021 C14.9135055,65.8715367 15.0349201,65.5895344 15.1644365,65.2895132 C15.2948733,64.9852202 15.4025024,64.7352626 15.488755,64.5363544 C15.5715826,64.3464984 15.6512137,64.1612838 15.727646,63.9807216 C15.7988777,63.8124451 15.8730386,63.627102 15.9492305,63.426835 C16.0382675,63.1918215 16.1395809,62.9380897 16.2522525,62.6676553 C16.3515317,62.4281728 16.4485407,62.1799177 16.5452888,61.9173858 C16.6467219,61.6454694 16.7412876,61.3900704 16.8295991,61.1495255 C16.9141101,60.9202015 17.0105554,60.6478198 17.1186511,60.3330236 C17.2786688,59.8669736 17.2786688,59.8669736 17.4103509,59.483255 C17.4913365,59.2472264 17.5844352,58.9694952 17.6906803,58.6468811 C17.7974346,58.3254528 17.8968657,58.0228463 17.9872484,57.7444176 C18.078677,57.4590375 18.1728693,57.1621816 18.269452,56.8550358 C18.3650068,56.5502635 18.4486548,56.2768508 18.5203287,56.0350871 C18.5932262,55.789196 18.6735127,55.514285 18.7626031,55.2054657 C18.8494019,54.9085147 18.9349492,54.6046417 19.0202635,54.2900904 C19.1095969,53.9641316 19.1953602,53.6585849 19.2763605,53.3776416 C19.3547262,53.102688 19.4349562,52.8166931 19.5167405,52.5207728 C19.602343,52.2100941 19.6885212,51.9084611 19.7752887,51.6158551 C19.8590465,51.3333985 19.9354892,51.0747395 20.0027172,50.8463881 C20.0744355,50.5985196 20.1583761,50.3213383 20.2550151,50.0131718 C20.3891716,49.5868162 20.3891716,49.5868162 20.4984109,49.2402541 C20.5695038,49.0108869 20.6433506,48.7774726 20.7183527,48.5449908 C20.8280135,48.2004856 20.8280135,48.2004856 20.933998,47.8661127 C21.0070898,47.6352591 21.1044313,47.3383139 21.2274941,46.9707184 C21.3462479,46.6186694 21.4535559,46.2946867 21.5485465,46.0014955 C21.6491522,45.6889844 21.7504211,45.3873103 21.8509687,45.1004888 C21.9785294,44.7331529 22.1840111,44.2954768 22.4709072,43.766993 Z"/><path d="M68.2778112,60.8746017 C68.0531493,60.0961634 68.5015618,59.2828422 69.2793684,59.0579979 C70.0571751,58.8331536 70.8698365,59.2819302 71.0944983,60.0603684 C71.2736382,60.6810758 71.3416472,61.1851998 71.2514833,61.6627935 C71.2035655,61.9177825 71.1314639,62.2031181 71.0328484,62.5320082 C70.9505983,62.8004327 70.8590485,63.1062956 70.7569769,63.4537781 C70.6516894,63.8081295 70.5636523,64.0977631 70.4907538,64.3292466 C70.4249884,64.5353633 70.3279676,64.8542775 70.1998186,65.2859867 C70.0676917,65.7270756 69.9638727,66.0684718 69.8863071,66.3166616 C69.8134594,66.5469402 69.7386886,66.7892519 69.6615997,67.0449262 C69.5838386,67.301927 69.5083613,67.5538729 69.4337581,67.8054884 C69.3583661,68.0566925 69.2715948,68.3438674 69.1741945,68.6645392 C69.0754836,68.991668 68.9853342,69.2838396 68.9016827,69.5474611 C68.8226575,69.7928179 68.7371499,70.0626107 68.6451935,70.3567493 C68.5538405,70.6489578 68.4633555,70.9448418 68.3722271,71.2494252 C68.2761828,71.566343 68.1794502,71.8710836 68.082903,72.1609513 C67.9916812,72.4366468 67.8999844,72.7169336 67.8073916,73.0031118 C67.7135636,73.2921895 67.6129046,73.5999316 67.5042386,73.9298973 C67.3947918,74.2594326 67.299866,74.5407157 67.2192751,74.774244 C67.0974306,75.1270089 67.0974306,75.1270089 66.9610456,75.5206936 C66.8232796,75.9178367 66.8232796,75.9178367 66.6940281,76.2893293 C66.6079927,76.5354781 66.5223565,76.7757352 66.4364657,77.011887 C66.354196,77.2371813 66.2388489,77.5557797 66.0906224,77.9671464 C65.9387677,78.3885824 65.7940563,78.7796204 65.6552264,79.143507 C65.5157381,79.5066598 65.3810141,79.8453992 65.2495069,80.1633735 C65.1205443,80.4729481 64.9942143,80.7698305 64.8711996,81.0524316 C64.7420112,81.3501981 64.6211858,81.613851 64.5068688,81.8467513 C64.403,82.0574174 64.3068712,82.2516724 64.2211729,82.424073 C64.1232843,82.623103 64.0168311,82.825938 63.9018371,83.032688 L63.7470255,83.3110266 C63.3532562,84.0189919 62.4605894,84.2734389 61.7531985,83.8793498 C61.0458076,83.4852608 60.791567,82.5918692 61.1853364,81.8839039 L61.340148,81.6055653 C61.4315694,81.441197 61.5150915,81.2820546 61.5934439,81.122775 C61.6804014,80.9478122 61.7751612,80.7563236 61.87655,80.5506928 C61.9679797,80.364417 62.0700099,80.1417771 62.1826485,79.882159 C62.3000518,79.6124463 62.4203243,79.3297993 62.5419953,79.0377409 C62.6621929,78.7471006 62.7877715,78.4313557 62.9174448,78.0937666 C63.0483256,77.7507053 63.1867504,77.3766548 63.3326454,76.9717586 C63.4821686,76.5567931 63.5988105,76.2346185 63.6821211,76.0064771 C63.7631068,75.7838084 63.8446123,75.5551403 63.9260612,75.3221166 C64.0540297,74.9543074 64.0540297,74.9543074 64.1911799,74.5589395 C64.326971,74.1669687 64.326971,74.1669687 64.4480757,73.8163457 C64.5245797,73.59466 64.6159757,73.3238363 64.7209084,73.0079078 C64.827134,72.6853376 64.9264971,72.3815573 65.018569,72.0978923 C65.1127201,71.8068952 65.2064319,71.5204497 65.3006151,71.2358132 C65.38948,70.969002 65.4781559,70.6896427 65.5650938,70.4028054 C65.658147,70.0917555 65.7521572,69.7843439 65.8471261,69.4805695 C65.9414916,69.1787251 66.0295191,68.9009814 66.1092867,68.6533656 C66.1865124,68.4099515 66.2726381,68.1308205 66.3683279,67.813712 C66.4656108,67.4934186 66.5514614,67.2092907 66.6244472,66.9661329 C66.6992158,66.7139304 66.7762668,66.4567313 66.8551877,66.1958995 C66.9356066,65.9291786 67.0142774,65.6742284 67.0896722,65.4359278 C67.1616138,65.2057054 67.2623836,64.8743357 67.3904261,64.4468983 C67.522713,64.0012328 67.6248009,63.6656627 67.6961715,63.4420137 C67.7619665,63.2330546 67.8456378,62.9577841 67.9454643,62.6218371 C68.0492829,62.2683818 68.144055,61.9517533 68.2272623,61.6802981 C68.2956462,61.4521668 68.3431925,61.2640067 68.3703961,61.1192483 C68.354899,61.2013361 68.3397938,61.0893673 68.2778112,60.8746017 Z"/><path d="M76.8259716,60.945117 C77.1142425,60.1879605 77.9612309,59.8080435 78.7177731,60.0965486 C79.4743153,60.3850536 79.8539241,61.2327297 79.5656531,61.9898862 C79.2992386,62.6897062 79.2992386,62.6897062 79.1366271,63.1171177 C79.0476496,63.3542899 78.9417632,63.6454913 78.8204056,63.9867978 C78.7012105,64.3244991 78.6111245,64.5902085 78.5516554,64.7786764 C78.4838697,64.9944476 78.4115223,65.219189 78.3362611,65.4478806 C78.2648492,65.6675844 78.1910057,65.9016856 78.1143306,66.1515256 C78.0361773,66.4052755 77.9575635,66.6617737 77.8794442,66.9178768 C77.8024618,67.1723043 77.7180458,67.4572148 77.6262505,67.7724544 C77.5324609,68.0945429 77.4482317,68.3815231 77.3721198,68.6382275 C77.3002022,68.877855 77.2145668,69.17538 77.1152691,69.5308129 C77.0142636,69.8914495 76.9196593,70.2310269 76.8314603,70.5495291 C76.7435011,70.8671654 76.6532413,71.1962682 76.5609426,71.5358761 C76.4699221,71.8716752 76.386191,72.1908246 76.309756,72.493255 C76.2299733,72.8089312 76.1429059,73.1458961 76.0483037,73.5051181 C75.9576683,73.8483892 75.874293,74.1772791 75.7981785,74.4917276 C75.7190461,74.8186442 75.6417251,75.1346281 75.5669669,75.4366268 C75.493478,75.7362691 75.4167745,76.0519628 75.337535,76.3808812 C75.2603033,76.7042741 75.1903416,77.010051 75.1285627,77.2939125 C75.064197,77.593916 74.9993699,77.8930071 74.9340813,78.1911859 C74.8683122,78.4915588 74.7979819,78.805987 74.722209,79.1383239 C74.6454787,79.4707797 74.5782061,79.7528009 74.5204775,79.9838999 C74.4642393,80.2099582 74.4029958,80.4537483 74.3367397,80.7153041 C74.2700433,80.9785979 74.2065038,81.2255355 74.1446941,81.4615137 C74.0827132,81.6946008 74.0206692,81.9218097 73.958114,82.1447218 C73.8948783,82.3691031 73.8087998,82.6609718 73.6980942,83.026478 C73.587524,83.3875297 73.4840709,83.7146129 73.3889332,84.0039715 C73.29698,84.2864334 73.215998,84.5359513 73.1460032,84.7524744 C73.0772975,84.9650098 73.013629,85.1655279 72.9574377,85.3460898 L72.8683868,85.6381397 C72.6320831,86.4131177 71.8127869,86.8496438 71.0384377,86.6131482 C70.2640885,86.3766526 69.8279164,85.5566912 70.0642202,84.7817133 L70.1556988,84.4817809 C70.217641,84.2826535 70.2845805,84.0718336 70.3565296,83.8492649 C70.4271896,83.6306839 70.5087826,83.3792837 70.6026536,83.0909511 C70.6925089,82.8176396 70.7899911,82.5094343 70.8936461,82.1709872 C70.9979863,81.8264742 71.0790496,81.5516107 71.1359335,81.3497711 C71.1943811,81.141493 71.2528984,80.9271992 71.3100677,80.7122472 C71.3684035,80.4894929 71.429992,80.2501377 71.494817,79.9942316 C71.5600822,79.7365876 71.6203133,79.4968271 71.6758438,79.2736167 C71.7292021,79.0600099 71.7925375,78.7944947 71.8647177,78.4817769 C71.937784,78.1612877 72.0062818,77.8550527 72.0702074,77.563099 C72.1346134,77.2689512 72.1985676,76.9738875 72.2629779,76.673706 C72.3299857,76.3657865 72.4043321,76.0408454 72.4866966,75.6959727 C72.5675309,75.3604217 72.6451823,75.0408269 72.7204091,74.7341126 C72.7946849,74.4340485 72.8708054,74.1229706 72.9487679,73.8008874 C73.0297484,73.466336 73.1180815,73.1178894 73.2135292,72.7563931 C73.3054878,72.4072082 73.3901288,72.0796339 73.467441,71.7737328 C73.5481009,71.4545859 73.6360783,71.119251 73.7316386,70.7667049 C73.8254028,70.4217034 73.9168983,70.0880951 74.0061275,69.7658725 C74.095117,69.4445156 74.190488,69.1021862 74.2919858,68.739793 C74.395709,68.368518 74.4863487,68.0536065 74.5628089,67.7988721 C74.6360689,67.5517584 74.7189814,67.2692642 74.8115137,66.9514936 C74.9060403,66.6268742 74.9933328,66.3322553 75.0744001,66.0643398 C75.1542476,65.802558 75.2336421,65.5435127 75.3121501,65.2886137 C75.3930035,65.0251564 75.4716883,64.7757069 75.549892,64.535139 C75.6227649,64.3136745 75.6910722,64.1014835 75.7553605,63.8968489 C75.8268601,63.6702497 75.9267494,63.3756254 76.0571138,63.0062912 C76.1848819,62.6469434 76.296371,62.3403337 76.3942164,62.079566 C76.5594505,61.645217 76.5594505,61.645217 76.8259716,60.945117 Z"/></g></g></svg>